#!OML:ASF F:\VICON\USERDATA\INSTALL\rory3\rory3.ASF
:FULLY-SPECIFIED
:DEGREES
3975
root 0.945899 17.9514 0.907195 2.78406 24.7298 -11.688
lowerback 6.11002 3.5761 -0.0553126
upperback -0.836359 4.53297 -6.73597
thorax -3.75111 2.20678 -7.4447
lowerneck -28.1382 -12.4167 -10.3349
upperneck 6.15383 -15.6827 17.9202
head 8.77222 -5.96991 5.18246
rclavicle -5.40694e-014 -4.77083e-014
rhumerus 48.9927 -12.968 -6.92643
rradius 48.6594
rwrist 50.1663
rhand -61.73 -16.4613
rfingers 7.12502
rthumb -33.7973 -43.2898
lclavicle -5.40694e-014 -4.77083e-014
lhumerus -34.3022 5.72767 63.354
lradius 64.6549
lwrist -2.82949
lhand -26.0427 23.3714
lfingers 7.12502
lthumb 0.504535 -306.649
rfemur -6.8681 -8.55959 20.5522
rtibia 20.0279
rfoot -12.1272 -14.9582
rtoes -5.06123
lfemur -20.9168 -0.66705 -6.58519
ltibia 32.3178
lfoot -15.1211 -0.31673
ltoes -15.2891
3976
root 0.928913 17.9571 0.901965 2.78714 24.7156 -11.6202
lowerback 6.14491 3.51285 -0.0414572
upperback -0.825962 4.44918 -6.7158
thorax -3.77092 2.16432 -7.42671
lowerneck -28.0646 -12.167 -10.5669
upperneck 6.65308 -15.4177 18.2397
head 8.95295 -5.80887 5.38615
rclavicle 1.145e-013 -4.45278e-014
rhumerus 48.5433 -13.6238 -7.87622
rradius 48.2873
rwrist 49.8871
rhand -61.5771 -16.5326
rfingers 7.12502
rthumb -33.6519 -43.3929
lclavicle 1.145e-013 -4.45278e-014
lhumerus -34.4364 5.81225 63.3356
lradius 64.4985
lwrist -2.84788
lhand -25.8886 23.146
lfingers 7.12502
lthumb 0.653351 -306.875
rfemur -7.0526 -8.57117 20.5296
rtibia 20.2749
rfoot -12.1166 -14.9692
rtoes -4.47056
lfemur -20.8229 -0.805072 -6.59412
ltibia 32.1026
lfoot -14.9952 -0.192674
ltoes -15.2984
3977
root 0.911251 17.96 0.898662 2.79956 24.6196 -11.6204
lowerback 6.05865 3.52257 -0.00169231
upperback -0.782348 4.47211 -6.66408
thorax -3.67481 2.17818 -7.3852
lowerneck -27.8869 -12.0884 -10.612
upperneck 6.77812 -15.3387 18.2585
head 8.96323 -5.77879 5.41973
rclavicle 7.87187e-014 -1.43125e-013
rhumerus 48.0137 -14.4462 -8.8469
rradius 47.9377
rwrist 49.517
rhand -61.2352 -17.7589
rfingers 7.12502
rthumb -33.3269 -44.6896
lclavicle 7.87187e-014 -1.43125e-013
lhumerus -34.5044 5.71956 63.4707
lradius 64.4148
lwrist -2.86217
lhand -25.8554 23.4721
lfingers 7.12502
lthumb 0.685415 -306.549
rfemur -7.26159 -8.52695 20.6075
rtibia 20.5075
rfoot -12.1635 -14.9763
rtoes -4.23505
lfemur -20.7171 -0.966425 -6.51282
ltibia 31.8496
lfoot -14.8354 0.0207753
ltoes -15.2165
3978
root 0.891476 17.9642 0.895411 2.82593 24.5277 -11.515
lowerback 6.0864 3.49923 -0.0693015
upperback -0.778439 4.43589 -6.61511
thorax -3.69982 2.1609 -7.29319
lowerneck -27.7775 -12.0795 -10.8982
upperneck 6.9747 -15.3246 18.5214
head 9.06552 -5.75514 5.56205
rclavicle 3.97569e-015 -4.13472e-014
rhumerus 47.526 -15.2161 -9.7898
rradius 47.636
rwrist 48.9395
rhand -61.4065 -17.6955
rfingers 7.12502
rthumb -33.4898 -44.5911
lclavicle 3.97569e-015 -4.13472e-014
lhumerus -34.7237 5.69424 63.5969
lradius 64.4132
lwrist -2.91866
lhand -25.951 23.9192
lfingers 7.12502
lthumb 0.593117 -306.102
rfemur -7.40444 -8.39597 20.5825
rtibia 20.6796
rfoot -12.3743 -14.9775
rtoes -3.12483
lfemur -20.6016 -1.09476 -6.53438
ltibia 31.6438
lfoot -14.6818 0.173521
ltoes -15.0994
3979
root 0.87161 17.9682 0.891981 2.85814 24.4898 -11.3076
lowerback 6.21978 3.42541 -0.219236
upperback -0.800803 4.31944 -6.59526
thorax -3.82528 2.10238 -7.18981
lowerneck -27.9377 -12.026 -11.2299
upperneck 7.54237 -15.2897 18.8628
head 9.34866 -5.68503 5.7436
rclavicle -2.3059e-014 -3.49861e-014
rhumerus 47.1447 -15.9994 -10.8877
rradius 47.2241
rwrist 48.1895
rhand -61.3627 -17.5545
rfingers 7.12502
rthumb -33.4482 -44.459
lclavicle -2.3059e-014 -3.49861e-014
lhumerus -34.9739 5.77841 63.6128
lradius 64.3379
lwrist -2.96786
lhand -26.0985 24.0529
lfingers 7.12502
lthumb 0.450617 -305.968
rfemur -7.45855 -8.31028 20.4663
rtibia 20.8006
rfoot -12.4896 -15.0165
rtoes -2.61891
lfemur -20.4919 -1.18042 -6.68385
ltibia 31.4829
lfoot -14.5574 0.260965
ltoes -15.2552
3980
root 0.850551 17.9701 0.889827 2.86643 24.5766 -11.203
lowerback 6.29762 3.35513 -0.243065
upperback -0.784663 4.2217 -6.58777
thorax -3.86629 2.05337 -7.16573
lowerneck -27.8966 -12.027 -11.2963
upperneck 7.74563 -15.3431 19.0181
head 9.44563 -5.69145 5.80039
rclavicle 6.36111e-015 -2.54444e-014
rhumerus 46.657 -16.9193 -12.0243
rradius 46.7342
rwrist 47.3231
rhand -61.6776 -17.6146
rfingers 7.12502
rthumb -33.7474 -44.4541
lclavicle 6.36111e-015 -2.54444e-014
lhumerus -35.1541 5.64301 63.5946
lradius 64.3888
lwrist -2.92749
lhand -26.1759 24.25
lfingers 7.12502
lthumb 0.375816 -305.771
rfemur -7.48497 -8.47935 20.493
rtibia 20.8839
rfoot -12.6553 -15.0568
rtoes -1.98765
lfemur -20.4583 -1.27719 -6.7143
ltibia 31.3531
lfoot -14.4292 0.205861
ltoes -15.2574
